<?xml version="1.0" encoding="UTF-8" standalone="no"?>
<svg width="42px" height="36px" viewBox="0 0 42 36" version="1.1" xmlns="http://www.w3.org/2000/svg" xmlns:xlink="http://www.w3.org/1999/xlink">
    <!-- Generator: sketchtool 3.8.3 (29802) - http://www.bohemiancoding.com/sketch -->
    <title>5DA9DD00-33C3-4FF5-BCCA-D65FE88C500A</title>
    <desc>Created with sketchtool.</desc>
    <defs></defs>
    <g id="App" stroke="none" stroke-width="1" fill="none" fill-rule="evenodd">
        <g id="By-invitation" transform="translate(-50.000000, -47.000000)">
            <g id="Fav-big" transform="translate(38.000000, 31.000000)">
                <rect id="Delete" x="0" y="0" width="64" height="64"></rect>
                <path d="M22,16 C16.4771525,16 12,20.4771607 12,26 C12,30.5384622 27.346153,51.1923075 33.0000011,51.1923087 C38.6538492,51.1923099 54.003009,30.5384622 54,26 C53.996991,21.4615378 49.5228475,16 44,16 C39.4344581,16 38.7272741,22.3000001 33.000002,22.3 C27.2727299,22.2999999 26.5787101,16 22,16 Z" id="Combined-Shape-Copy" fill="#1D74B9"></path>
                <path d="M37.0000002,37 C37.0000003,44.8718438 27.346153,51.1923075 33.0000011,51.1923087 C38.6538492,51.1923099 54.003009,30.5384622 54,26 C53.996991,21.4615378 49.5228475,16 44,16 C39.4344581,16 37.7272732,22.0000001 32.000001,22 C26.2727289,21.9999999 37.0000001,31 37.0000002,37 Z" id="Combined-Shape-Copy-2" fill="#30A3FE"></path>
            </g>
        </g>
    </g>
</svg>