<?xml version="1.0" encoding="UTF-8" standalone="no"?>
<svg width="30px" height="30px" viewBox="0 0 30 30" version="1.1" xmlns="http://www.w3.org/2000/svg" xmlns:xlink="http://www.w3.org/1999/xlink">
    <!-- Generator: Sketch 39.1 (31720) - http://www.bohemiancoding.com/sketch -->
    <title>ic_checkbox select</title>
    <desc>Created with Sketch.</desc>
    <defs></defs>
    <g id="App-2" stroke="none" stroke-width="1" fill="none" fill-rule="evenodd">
        <g id="Atoms" transform="translate(-102.000000, -1961.000000)" fill="#A8C835">
            <g id="ic_checkbox-select" transform="translate(102.000000, 1961.000000)">
                <path d="M2,24.001155 C2,26.2078908 3.79150537,28 5.99884495,28 L24.001155,28 C26.2078908,28 28,26.2084946 28,24.001155 L28,5.99884495 C28,3.79210918 26.2084946,2 24.001155,2 L5.99884495,2 C3.79210918,2 2,3.79150537 2,5.99884495 L2,24.001155 Z M5.99884495,0 L24.001155,0 C27.3142256,0 30,2.68870147 30,5.99884495 L30,24.001155 C30,27.3142256 27.3112985,30 24.001155,30 L5.99884495,30 C2.68577437,30 0,27.3112985 0,24.001155 L0,5.99884495 C0,2.68577437 2.68870147,0 5.99884495,0 Z" id="Rectangle-Copy"></path>
                <polygon id="Shape" points="12 19.17 7.83 15 6.41 16.41 12 22 24 10 22.59 8.59"></polygon>
            </g>
        </g>
    </g>
</svg>